<svg width="24" height="24" viewBox="0 0 24 24" fill="none" xmlns="http://www.w3.org/2000/svg">
<path fill-rule="evenodd" clip-rule="evenodd" d="M15.5303 7.46967C15.2374 7.17678 14.7626 7.17678 14.4697 7.46967C14.1768 7.76256 14.1768 8.23744 14.4697 8.53033L17.1893 11.25H5C4.58579 11.25 4.25 11.5858 4.25 12C4.25 12.4142 4.58579 12.75 5 12.75H17.1893L14.4697 15.4697C14.1768 15.7626 14.1768 16.2374 14.4697 16.5303C14.7626 16.8232 15.2374 16.8232 15.5303 16.5303L19.5298 12.5308C19.5297 12.531 19.53 12.5307 19.5298 12.5308C19.6017 12.4589 19.6565 12.3755 19.6931 12.2871C19.7298 12.1987 19.75 12.1017 19.75 12C19.75 11.8081 19.6768 11.6161 19.5303 11.4697L15.5303 7.46967Z" fill="#25282B"/>
</svg>
