<svg width="24" height="24" viewBox="0 0 24 24" fill="none" xmlns="http://www.w3.org/2000/svg">
<path fill-rule="evenodd" clip-rule="evenodd" d="M9.53033 8.53033C9.82322 8.23744 9.82322 7.76256 9.53033 7.46967C9.23744 7.17678 8.76256 7.17678 8.46967 7.46967L4.46967 11.4697C4.39776 11.5416 4.34351 11.6244 4.30691 11.7129C4.27024 11.8013 4.25 11.8983 4.25 12C4.25 12.1017 4.27024 12.1987 4.30691 12.2871C4.30857 12.2911 4.31026 12.2951 4.312 12.2991C4.34846 12.383 4.40102 12.4617 4.46967 12.5303L8.46967 16.5303C8.76256 16.8232 9.23744 16.8232 9.53033 16.5303C9.82322 16.2374 9.82322 15.7626 9.53033 15.4697L6.81066 12.75H19C19.4142 12.75 19.75 12.4142 19.75 12C19.75 11.5858 19.4142 11.25 19 11.25H6.81066L9.53033 8.53033Z" fill="#25282B"/>
</svg>
